<?xml version="1.0" standalone="no"?>
<!DOCTYPE svg PUBLIC "-//W3C//DTD SVG 20010904//EN"
 "http://www.w3.org/TR/2001/REC-SVG-20010904/DTD/svg10.dtd">
<svg version="1.0" xmlns="http://www.w3.org/2000/svg"
 width="342.000000pt" height="342.000000pt" viewBox="0 0 342.000000 342.000000"
 preserveAspectRatio="xMidYMid meet">
<metadata>
Created by potrace 1.14, written by Peter Selinger 2001-2017
</metadata>
<g transform="translate(0.000000,342.000000) scale(0.100000,-0.100000)"
fill="#000000" stroke="none">
<path d="M1036 3021 c-4 -7 -5 -15 -2 -18 9 -9 19 4 14 18 -4 11 -6 11 -12 0z"/>
<path d="M1116 2828 c3 -13 15 -39 26 -58 10 -19 17 -28 14 -19 -24 84 -30 99
-38 99 -5 0 -6 -10 -2 -22z"/>
<path d="M1260 2840 c0 -5 5 -10 11 -10 5 0 7 5 4 10 -3 6 -8 10 -11 10 -2 0
-4 -4 -4 -10z"/>
<path d="M1325 2790 c-7 -12 2 -30 16 -30 12 0 12 27 0 35 -5 3 -12 1 -16 -5z"/>
<path d="M880 2727 c0 -29 4 -36 26 -41 34 -9 46 4 42 40 -2 25 -8 29 -35 32
-32 3 -33 2 -33 -31z"/>
<path d="M1607 2678 c-27 -15 -22 -56 9 -64 32 -8 48 7 40 39 -7 29 -26 39
-49 25z"/>
<path d="M1541 2664 c0 -11 3 -14 6 -6 3 7 2 16 -1 19 -3 4 -6 -2 -5 -13z"/>
<path d="M950 2653 c0 -11 9 -28 20 -38 20 -18 20 -18 3 16 -21 44 -23 46 -23
22z"/>
<path d="M1695 2651 c-3 -5 -1 -12 5 -16 5 -3 10 1 10 9 0 18 -6 21 -15 7z"/>
<path d="M1905 2640 c4 -6 11 -8 16 -5 14 9 11 15 -7 15 -8 0 -12 -5 -9 -10z"/>
<path d="M2420 2630 c0 -5 5 -10 10 -10 6 0 10 5 10 10 0 6 -4 10 -10 10 -5 0
-10 -4 -10 -10z"/>
<path d="M740 2603 c0 -5 4 -14 9 -22 8 -12 12 -13 26 -1 13 10 13 15 3 21
-16 11 -38 11 -38 2z"/>
<path d="M1464 2599 c-3 -6 -1 -16 5 -22 8 -8 11 -5 11 11 0 24 -5 28 -16 11z"/>
<path d="M1490 2595 c0 -10 7 -15 18 -13 21 4 19 22 -2 26 -10 2 -16 -3 -16
-13z"/>
<path d="M812 2583 c5 -25 28 -28 28 -4 0 12 -6 21 -16 21 -9 0 -14 -7 -12
-17z"/>
<path d="M2540 2590 c0 -5 5 -10 10 -10 6 0 10 5 10 10 0 6 -4 10 -10 10 -5 0
-10 -4 -10 -10z"/>
<path d="M992 2566 c16 -31 18 -32 18 -4 0 15 -6 25 -14 25 -12 0 -13 -5 -4
-21z"/>
<path d="M1220 2560 c0 -5 5 -10 10 -10 6 0 10 5 10 10 0 6 -4 10 -10 10 -5 0
-10 -4 -10 -10z"/>
<path d="M2495 2560 c4 -6 11 -8 16 -5 14 9 11 15 -7 15 -8 0 -12 -5 -9 -10z"/>
<path d="M1270 2546 c0 -9 5 -16 10 -16 6 0 10 4 10 9 0 6 -4 13 -10 16 -5 3
-10 -1 -10 -9z"/>
<path d="M1716 2551 c-3 -5 1 -14 8 -20 16 -13 32 2 21 19 -8 12 -22 13 -29 1z"/>
<path d="M1800 2535 c0 -28 25 -44 42 -27 15 15 -1 52 -23 52 -14 0 -19 -7
-19 -25z"/>
<path d="M1925 2543 c-3 -10 -1 -19 4 -21 6 -2 18 -20 28 -40 22 -49 42 -72
63 -72 9 0 24 8 33 18 13 14 13 20 3 35 -7 9 -19 17 -27 17 -9 0 -14 12 -15
31 -1 17 -7 35 -15 40 -24 15 -66 10 -74 -8z"/>
<path d="M1316 2541 c-3 -5 1 -11 9 -15 9 -3 15 0 15 9 0 16 -16 20 -24 6z"/>
<path d="M1350 2530 c0 -5 5 -10 11 -10 5 0 7 5 4 10 -3 6 -8 10 -11 10 -2 0
-4 -4 -4 -10z"/>
<path d="M1616 2515 c-3 -8 -12 -15 -21 -15 -18 0 -20 -21 -3 -38 17 -17 28
-15 28 4 0 8 5 12 10 9 6 -4 10 7 10 24 0 33 -14 42 -24 16z"/>
<path d="M776 2513 c-11 -11 -6 -23 9 -23 8 0 15 4 15 9 0 13 -16 22 -24 14z"/>
<path d="M1299 2500 c-12 -7 -15 -21 -11 -67 6 -69 22 -86 72 -77 46 8 63 22
56 49 -4 17 -1 21 16 21 11 -1 23 4 25 10 5 16 -27 26 -42 14 -15 -13 -86 21
-95 44 -3 10 -10 12 -21 6z"/>
<path d="M1540 2490 c-13 -8 -12 -10 3 -10 9 0 17 5 17 10 0 12 -1 12 -20 0z"/>
<path d="M1851 2481 c-27 -27 -26 -35 4 -59 14 -11 25 -29 25 -41 0 -20 32
-61 48 -61 19 1 34 20 42 53 4 22 4 35 -1 31 -5 -3 -9 2 -9 10 0 9 -9 16 -20
16 -11 0 -20 6 -20 13 0 8 -11 24 -24 36 l-24 23 -21 -21z"/>
<path d="M1690 2450 c0 -19 3 -21 12 -12 9 9 9 15 0 24 -9 9 -12 7 -12 -12z"/>
<path d="M1000 2441 c0 -6 -7 -11 -15 -11 -21 0 -19 -23 3 -43 26 -23 52 -22
52 3 0 11 1 23 3 26 1 4 -8 13 -20 22 -15 9 -23 10 -23 3z"/>
<path d="M2292 2438 c5 -15 28 -18 29 -3 0 6 -7 12 -17 13 -10 3 -15 -1 -12
-10z"/>
<path d="M2415 2440 c-3 -5 -2 -10 4 -10 5 0 13 5 16 10 3 6 2 10 -4 10 -5 0
-13 -4 -16 -10z"/>
<path d="M185 2420 c-7 -11 12 -50 25 -50 15 0 22 19 15 40 -7 21 -30 27 -40
10z"/>
<path d="M900 2415 c12 -15 30 -12 30 6 0 5 -10 9 -21 9 -18 0 -19 -2 -9 -15z"/>
<path d="M1516 2422 c-11 -18 -3 -92 10 -92 7 0 15 4 18 9 3 5 15 7 26 4 11
-3 20 0 20 6 0 6 -6 11 -14 11 -15 0 -26 21 -26 51 0 19 -24 27 -34 11z"/>
<path d="M2105 2420 c3 -5 8 -10 11 -10 2 0 4 5 4 10 0 6 -5 10 -11 10 -5 0
-7 -4 -4 -10z"/>
<path d="M2439 2423 c0 -5 -2 -20 -4 -34 -3 -24 0 -27 26 -25 36 3 38 5 32 39
-4 20 -11 27 -29 27 -13 0 -24 -3 -25 -7z"/>
<path d="M2596 2411 c-4 -7 -5 -15 -2 -18 9 -9 19 4 14 18 -4 11 -6 11 -12 0z"/>
<path d="M2090 2384 c0 -8 5 -12 10 -9 6 3 10 10 10 16 0 5 -4 9 -10 9 -5 0
-10 -7 -10 -16z"/>
<path d="M1480 2381 c0 -5 5 -13 10 -16 6 -3 10 -2 10 4 0 5 -4 13 -10 16 -5
3 -10 2 -10 -4z"/>
<path d="M1800 2371 c0 -24 13 -33 35 -25 23 9 14 38 -13 42 -16 3 -22 -2 -22
-17z"/>
<path d="M2240 2380 c-13 -8 -13 -11 2 -26 14 -14 20 -15 32 -5 16 13 11 41
-8 41 -6 0 -18 -5 -26 -10z"/>
<path d="M2405 2370 c-3 -5 -1 -10 4 -10 6 0 11 5 11 10 0 6 -2 10 -4 10 -3 0
-8 -4 -11 -10z"/>
<path d="M1290 2347 c0 -10 8 -17 18 -17 9 0 13 4 7 8 -5 4 -13 11 -17 16 -5
5 -8 2 -8 -7z"/>
<path d="M1640 2350 c0 -5 5 -10 10 -10 6 0 10 5 10 10 0 6 -4 10 -10 10 -5 0
-10 -4 -10 -10z"/>
<path d="M2015 2339 c-9 -29 2 -36 20 -13 18 24 19 34 1 34 -8 0 -18 -9 -21
-21z"/>
<path d="M2302 2343 c5 -25 28 -28 28 -4 0 12 -6 21 -16 21 -9 0 -14 -7 -12
-17z"/>
<path d="M2640 2352 c0 -14 11 -21 26 -15 21 8 17 23 -6 23 -11 0 -20 -4 -20
-8z"/>
<path d="M1851 2321 l-21 -18 25 0 c18 0 25 5 25 18 0 11 -2 19 -3 19 -2 0
-14 -8 -26 -19z"/>
<path d="M2249 2328 c-10 -32 10 -84 24 -61 8 12 -4 63 -14 63 -5 0 -9 -1 -10
-2z"/>
<path d="M2440 2311 c0 -11 -4 -23 -10 -26 -15 -9 -12 -25 5 -25 7 0 18 -7 23
-16 11 -20 58 -15 54 5 -3 12 0 12 12 2 8 -7 20 -10 26 -6 18 11 11 35 -15 45
-14 5 -28 17 -31 25 -4 9 -18 15 -35 15 -22 0 -29 -5 -29 -19z"/>
<path d="M744 2309 c-8 -14 5 -29 26 -29 13 0 17 -5 14 -15 -4 -8 -1 -15 6
-15 6 0 20 -10 31 -22 15 -19 18 -20 19 -7 0 9 -11 27 -25 40 -13 13 -25 29
-25 35 0 15 -38 25 -46 13z"/>
<path d="M955 2310 c-3 -5 -1 -10 4 -10 6 0 11 5 11 10 0 6 -2 10 -4 10 -3 0
-8 -4 -11 -10z"/>
<path d="M2940 2306 c0 -9 7 -16 16 -16 17 0 14 22 -4 28 -7 2 -12 -3 -12 -12z"/>
<path d="M1116 2295 c-16 -12 -17 -15 -4 -15 9 0 18 7 22 15 7 18 6 18 -18 0z"/>
<path d="M1290 2280 c0 -16 4 -30 9 -30 5 0 16 -3 24 -6 19 -7 40 28 31 50 -4
10 -18 16 -35 16 -26 0 -29 -4 -29 -30z"/>
<path d="M1640 2300 c0 -5 -11 -10 -24 -10 -17 0 -26 -7 -30 -25 -4 -14 -11
-23 -16 -20 -5 3 -12 -1 -17 -9 -10 -17 -32 -22 -55 -12 -29 13 -48 -1 -48
-33 0 -23 5 -30 25 -33 13 -3 26 0 28 6 2 6 9 0 16 -13 12 -22 12 -24 -8 -18
-20 5 -21 2 -15 -29 7 -36 -10 -49 -19 -14 -4 14 -14 20 -32 20 -27 0 -27 1
-23 49 4 43 3 47 -9 35 -17 -16 -39 -18 -48 -4 -9 15 -25 2 -25 -19 0 -14 -6
-17 -26 -13 -25 5 -26 3 -22 -32 3 -23 0 -36 -8 -36 -16 0 -24 -23 -17 -48 5
-21 60 -37 66 -19 1 5 18 2 37 -6 20 -9 28 -16 18 -16 -10 -1 -18 -8 -18 -17
0 -10 6 -13 19 -9 22 7 51 -3 51 -18 0 -8 -3 -8 -11 0 -9 9 -19 6 -40 -10 -16
-11 -29 -26 -29 -31 0 -6 4 -5 9 3 5 7 14 12 20 10 7 -3 -8 -25 -33 -52 -42
-44 -66 -61 -51 -37 3 6 0 10 -8 10 -8 0 -18 -7 -21 -16 -3 -8 -2 -12 4 -9 6
3 10 -1 10 -9 0 -19 -3 -19 -53 -5 -21 5 -35 14 -32 19 3 5 -4 14 -15 20 -11
6 -20 16 -20 22 0 6 -10 19 -22 30 -21 18 -23 18 -29 1 -4 -12 -1 -19 10 -22
28 -6 54 -40 42 -55 -7 -9 -7 -16 1 -24 9 -9 3 -9 -22 -2 -25 7 -36 6 -41 -2
-4 -7 -6 -15 -3 -19 2 -4 -18 -7 -44 -7 -26 0 -53 -1 -59 -1 -7 -1 -13 -11
-12 -23 0 -17 2 -19 7 -8 15 32 82 0 82 -40 0 -16 -41 -2 -57 19 -6 9 -15 13
-19 8 -4 -4 -17 -1 -28 6 -36 22 -76 37 -76 28 0 -19 49 -64 64 -58 9 4 22 -3
34 -17 10 -13 29 -26 42 -30 20 -6 22 -5 10 4 -13 10 -13 11 1 7 9 -3 23 3 32
14 19 22 49 26 41 6 -5 -15 35 -37 66 -37 11 0 20 -5 20 -11 0 -5 5 -7 10 -4
13 8 13 -11 0 -36 -19 -35 1 -40 30 -8 16 17 34 28 40 24 14 -9 13 -25 -2 -26
-7 0 -23 -12 -35 -27 -21 -28 -21 -28 -2 -69 11 -24 27 -43 40 -46 19 -5 20
-8 7 -20 -19 -19 -80 -16 -86 3 -3 8 -11 23 -20 32 -11 14 -12 21 -3 32 6 7 9
21 5 30 -3 9 -2 16 4 16 16 0 1 40 -19 53 -11 7 -19 19 -19 28 0 27 -75 56
-84 33 -8 -22 -9 -21 16 -27 13 -4 26 -1 30 6 6 9 8 9 8 -1 0 -7 5 -10 10 -7
15 9 12 -8 -6 -33 -16 -23 -37 -22 -28 2 3 7 -2 16 -10 19 -9 4 -16 2 -16 -2
0 -5 -10 -7 -22 -3 -16 4 -19 2 -13 -8 6 -10 2 -12 -18 -8 -17 3 -24 1 -20 -5
4 -6 0 -8 -11 -4 -10 4 -22 7 -27 7 -6 0 -8 4 -5 9 4 5 1 11 -5 13 -16 5 1 39
25 48 16 7 17 9 4 9 -9 1 -26 -11 -37 -25 -14 -18 -26 -24 -40 -19 -13 4 -23
0 -30 -12 -10 -17 -12 -17 -27 2 -14 19 -15 17 -10 -24 2 -24 2 -49 -1 -57 -6
-16 -33 -19 -33 -4 0 5 -7 7 -15 4 -8 -4 -12 -10 -9 -15 3 -5 10 -6 16 -3 6 4
8 -1 4 -13 -6 -18 -1 -20 48 -21 44 -1 59 -6 80 -27 22 -22 28 -24 45 -13 11
7 22 22 25 34 7 25 46 30 46 5 0 -7 8 -20 18 -28 16 -13 15 -14 -6 -9 -35 7
-52 -3 -52 -30 0 -21 3 -23 31 -17 24 4 34 2 41 -10 10 -19 43 -23 53 -7 11
17 20 11 32 -19 6 -17 7 -35 2 -42 -5 -8 -9 -26 -9 -41 0 -32 -5 -34 -26 -13
-18 17 -80 20 -90 4 -8 -14 -14 -137 -7 -161 2 -10 11 -18 19 -18 8 0 14 -10
14 -25 0 -20 5 -25 25 -25 33 0 42 25 20 50 -26 28 -2 25 33 -5 36 -30 56 -31
82 -5 24 24 40 26 40 5 0 -9 8 -25 19 -36 15 -17 26 -19 57 -13 43 8 54 18 54
52 0 16 -6 22 -22 22 -21 0 -21 0 -2 14 17 13 21 12 38 -2 20 -19 25 -18 45
10 14 21 9 33 -17 33 -25 0 -27 31 -3 38 12 3 26 16 31 29 9 19 10 17 5 -14
-5 -33 -4 -36 15 -31 20 5 28 -11 11 -22 -5 -3 -7 -20 -4 -39 3 -18 0 -44 -7
-56 l-12 -23 -19 24 -19 24 6 -32 c5 -26 3 -33 -10 -33 -16 0 -21 -11 -11 -22
3 -3 23 -2 45 2 58 11 68 -7 36 -62 -29 -50 -31 -129 -4 -167 20 -28 5 -71
-24 -71 -20 0 -24 -15 -6 -26 6 -4 16 0 23 9 7 10 17 17 24 17 11 0 14 14 11
65 -1 27 3 31 40 43 43 13 65 7 90 -23 10 -13 24 -15 64 -10 50 6 51 5 70 -27
13 -24 20 -29 24 -18 3 8 12 20 21 27 13 9 14 14 4 24 -10 10 -13 10 -13 1 0
-7 -7 -12 -16 -12 -11 0 -14 6 -9 20 4 13 2 20 -7 21 -27 3 -34 4 -52 15 -14
9 -17 18 -11 43 3 17 12 31 19 31 16 0 46 -32 46 -48 0 -7 7 -12 15 -12 8 0
15 -6 15 -14 0 -8 10 -13 28 -12 23 1 27 -3 27 -25 -1 -19 3 -25 14 -21 10 4
13 1 8 -11 -5 -14 0 -17 24 -17 24 0 30 4 27 18 -2 10 -11 16 -21 14 -21 -4
-23 24 -1 32 25 10 34 7 28 -8 -9 -23 13 -28 46 -11 16 8 30 17 30 20 0 2 -12
16 -26 30 -18 18 -23 31 -18 43 23 54 11 108 -19 84 -20 -16 -42 1 -45 37 l-4
34 34 -21 c23 -14 44 -19 70 -16 33 4 38 1 43 -19 3 -12 16 -27 27 -32 32 -15
33 -32 2 -60 l-27 -25 39 5 c21 2 44 12 50 20 10 13 12 13 17 -5 4 -15 0 -20
-14 -20 -20 0 -39 -28 -39 -59 0 -18 -35 -48 -51 -44 -3 1 -6 -10 -5 -25 1
-26 5 -28 44 -30 39 -1 42 0 32 18 -13 25 3 35 31 19 17 -9 23 -8 30 2 5 8 7
19 4 26 -2 7 0 15 4 18 12 7 34 -22 26 -35 -3 -5 1 -10 9 -10 8 0 18 5 21 10
11 17 65 12 73 -7 4 -12 9 1 13 37 3 30 2 60 -3 67 -5 7 -5 14 2 18 6 4 10 17
9 28 -1 12 3 35 10 51 9 23 9 31 -1 37 -17 11 -38 -9 -38 -35 0 -15 -3 -17 -8
-8 -6 9 -16 10 -34 3 -25 -9 -25 -9 -15 19 6 17 16 26 24 23 7 -3 13 0 13 6 0
6 -4 11 -10 11 -5 0 -10 4 -10 10 0 11 61 39 73 33 13 -7 8 -23 -8 -23 -29 0
-15 -15 15 -16 20 -1 30 3 30 13 0 12 3 12 16 -2 15 -14 14 -18 -10 -40 -28
-26 -26 -50 4 -60 24 -8 71 4 93 23 9 8 18 12 18 9 13 -66 60 -80 84 -25 14
32 13 34 -15 59 -37 32 -38 39 -1 39 17 0 31 6 35 16 10 25 7 34 -9 28 -8 -4
-15 -1 -15 6 0 6 4 9 9 6 19 -12 54 30 53 62 -4 63 -3 62 -53 62 -33 0 -49 5
-53 16 -4 11 0 14 17 12 21 -3 22 1 25 75 3 71 6 81 29 101 27 24 24 52 -4 42
-9 -4 -22 -1 -30 6 -22 18 -56 -28 -41 -55 7 -13 6 -23 -1 -30 -8 -8 -11 -8
-11 1 0 7 1 14 3 16 5 8 -36 45 -44 40 -5 -3 -9 0 -9 6 0 6 -4 8 -10 5 -12 -8
-13 15 -1 33 7 12 13 11 37 -1 26 -14 30 -13 46 6 13 14 15 24 8 31 -5 5 -10
18 -10 29 0 14 -5 17 -20 12 -11 -3 -20 -4 -20 -2 0 16 24 67 31 67 5 0 9 7 9
15 0 8 7 15 15 15 8 0 15 5 15 11 0 6 -7 9 -15 5 -8 -3 -27 -1 -42 5 l-27 10
24 13 c24 12 30 43 10 56 -6 4 -6 43 0 60 3 8 -1 55 -6 59 -2 2 -10 -2 -19 -9
-14 -11 -13 -14 2 -26 17 -13 17 -13 0 -14 -10 0 -17 -6 -16 -12 1 -7 -3 -25
-11 -40 -10 -22 -15 -25 -31 -15 -9 6 -17 18 -17 26 2 43 -33 139 -49 134 -6
-2 -14 4 -17 14 -11 35 -96 57 -156 41 -25 -7 -26 -5 -25 32 0 22 3 40 7 40 3
0 4 9 1 20 -3 13 -12 20 -23 18 -9 -2 -24 3 -33 11 -13 10 -20 11 -31 2 -11
-10 -16 -8 -21 9 -4 12 -4 24 -1 27 3 4 6 1 6 -5 0 -7 5 -12 11 -12 6 0 9 7 5
15 -3 8 -1 15 4 15 17 0 22 42 7 57 -13 13 -15 10 -21 -21 -7 -36 -19 -43 -45
-27 -9 6 -10 11 -2 15 16 10 14 66 -2 66 -18 0 -57 -37 -57 -55 0 -7 6 -15 13
-18 7 -2 8 -8 3 -13 -5 -5 -11 -4 -13 4 -3 6 -11 12 -20 12 -10 0 -12 6 -8 19
4 14 0 23 -15 31 -11 6 -20 17 -20 25 0 8 -4 15 -10 15 -5 0 -10 -5 -10 -11 0
-7 -9 -9 -24 -5 -16 4 -26 1 -30 -9 -3 -8 -12 -15 -19 -15 -8 0 -17 -13 -20
-30 -4 -16 -11 -30 -17 -30 -7 0 -8 6 0 19 18 34 11 55 -27 89 -29 25 -39 29
-41 17 -4 -17 -23 -20 -38 -5 -7 7 -18 4 -33 -10 -23 -20 -24 -28 -5 -89 6
-21 4 -23 -10 -18 -10 4 -27 7 -39 7 -16 0 -18 3 -9 12 19 19 14 49 -8 55 -11
3 -17 9 -14 15 3 5 11 5 19 -2 10 -9 15 -4 20 20 4 16 11 30 16 30 5 0 9 5 9
10 0 6 -4 10 -10 10 -5 0 -10 -4 -10 -10z m129 -56 c-14 -18 -24 -11 -15 11 3
9 11 13 16 10 8 -5 7 -11 -1 -21z m-21 -52 c2 -23 10 -36 27 -44 13 -6 25 -18
28 -27 6 -22 -48 -28 -57 -6 -3 8 -12 15 -21 15 -8 0 -15 5 -15 11 0 5 4 8 9
5 12 -8 23 23 16 45 -4 11 -13 19 -21 19 -8 0 -12 5 -9 11 14 21 40 4 43 -29z
m262 -71 c0 -17 -18 -21 -24 -6 -3 9 0 15 9 15 8 0 15 -4 15 -9z m-608 -43
c-2 -10 -11 -18 -18 -18 -8 0 -17 0 -21 0 -5 -1 -11 12 -14 27 -6 29 -5 29 26
19 24 -7 31 -15 27 -28z m218 -109 c0 -15 -4 -19 -16 -15 -9 3 -18 6 -20 6 -2
0 -4 7 -4 15 0 8 9 15 20 15 14 0 20 -7 20 -21z m501 -20 c9 -17 8 -23 -2 -30
-23 -15 -29 -10 -29 21 0 35 14 39 31 9z m-451 -34 c0 -23 -22 -29 -37 -10
-10 14 -10 21 -1 26 15 10 38 0 38 -16z m524 -29 c-3 -14 -12 -26 -20 -26 -18
0 -18 10 2 38 20 28 27 23 18 -12z m19 -41 c-7 -21 -13 -19 -13 6 0 11 4 18
10 14 5 -3 7 -12 3 -20z m207 -25 c3 -1 -4 -5 -15 -9 -19 -8 -18 -9 7 -21 23
-11 27 -17 21 -39 -12 -49 -43 -55 -60 -11 -11 29 -10 30 15 31 23 1 22 3 -10
11 -26 7 -38 16 -38 27 0 14 8 17 38 15 20 -1 39 -3 42 -4z m-1270 -79 c12
-23 6 -27 -35 -28 -16 -1 -24 1 -17 4 6 2 12 13 12 24 0 25 26 25 40 0z m133
-26 c-3 -9 -8 -14 -10 -11 -3 3 -2 9 2 15 9 16 15 13 8 -4z m730 1 c4 -11 1
-13 -10 -9 -13 5 -15 2 -9 -13 7 -18 6 -18 -10 -2 -17 17 -12 38 11 38 7 0 15
-7 18 -14z m-264 -38 c1 -5 -8 -8 -19 -8 -13 0 -20 7 -20 19 0 38 36 27 39
-11z m399 26 c13 -4 22 -14 22 -25 0 -12 10 -23 25 -29 45 -17 29 -90 -20 -90
-26 0 -45 18 -45 42 0 21 -34 41 -58 34 -22 -7 -47 8 -38 23 5 8 13 8 27 1 16
-9 19 -7 19 9 0 11 8 25 18 30 20 12 21 12 50 5z m-674 -19 c4 -11 -1 -15 -19
-15 -29 0 -42 17 -18 23 30 8 31 8 37 -8z m410 9 c19 -7 20 -42 2 -67 -10 -13
-24 -16 -55 -13 -50 4 -57 9 -36 26 8 7 15 21 15 30 0 26 38 38 74 24z m592
-65 c12 -19 -12 -32 -29 -15 -9 10 -23 13 -33 9 -12 -4 -15 -3 -10 5 4 7 14
12 22 12 9 0 12 5 8 11 -5 8 -1 8 14 0 12 -6 24 -16 28 -22z m-1130 -4 c-3 -8
0 -15 7 -16 9 0 9 -2 0 -5 -7 -3 -22 0 -35 7 l-23 13 25 7 c14 4 27 7 29 8 2
1 1 -6 -3 -14z m194 -4 c0 -26 -17 -36 -35 -21 -18 15 -8 40 16 40 12 0 19 -7
19 -19z m420 4 c0 -8 -4 -15 -8 -15 -5 0 -9 7 -9 15 0 8 4 15 9 15 4 0 8 -7 8
-15z m-260 -2 c0 -17 -19 -35 -29 -29 -18 12 -12 36 9 36 11 0 20 -3 20 -7z
m672 -46 c-12 -6 -25 -7 -29 -3 -11 10 18 25 35 18 13 -4 11 -8 -6 -15z
m-1067 -7 c3 -5 1 -10 -4 -10 -6 0 -11 5 -11 10 0 6 2 10 4 10 3 0 8 -4 11
-10z m553 -15 c-3 -3 -9 2 -12 12 -6 14 -5 15 5 6 7 -7 10 -15 7 -18z m148
-13 c-4 -3 -12 0 -19 7 -9 9 -9 14 3 21 11 7 16 5 18 -6 2 -9 1 -18 -2 -22z
m-650 13 c-3 -9 1 -18 9 -21 8 -4 15 -14 14 -23 0 -10 -2 -11 -6 -3 -2 6 -13
12 -23 12 -19 0 -34 25 -24 41 9 16 37 10 30 -6z m1034 -85 c0 -18 -5 -30 -13
-30 -7 0 -18 -14 -24 -31 -11 -27 -15 -30 -28 -19 -32 27 -13 60 36 60 16 0
18 5 13 25 -4 15 -2 25 5 25 6 0 11 -13 11 -30z m25 -109 c5 -12 -10 -31 -25
-31 -16 0 -32 20 -27 33 7 20 44 18 52 -2z m-945 -75 c0 -3 -4 -8 -10 -11 -5
-3 -10 -1 -10 4 0 6 5 11 10 11 6 0 10 -2 10 -4z m-292 -129 c-5 -10 -15 -16
-22 -14 -7 3 -19 1 -27 -3 -13 -9 -39 5 -39 20 0 4 14 10 30 14 18 3 30 12 30
21 0 13 3 12 18 -2 14 -13 16 -23 10 -36z m557 42 c10 -15 -4 -61 -15 -54 -6
3 -10 2 -10 -3 0 -14 -42 -3 -70 18 -14 10 -22 22 -18 26 4 4 15 1 24 -7 15
-12 19 -11 32 9 15 23 46 29 57 11z m-125 -59 c0 -5 -4 -10 -10 -10 -5 0 -10
5 -10 10 0 6 5 10 10 10 6 0 10 -4 10 -10z m944 -16 c4 -10 1 -14 -6 -12 -15
5 -23 28 -10 28 5 0 13 -7 16 -16z m-643 -36 c11 -21 11 -22 -4 -9 -10 7 -17
17 -17 22 0 15 9 10 21 -13z m599 -32 c0 -2 -8 -6 -18 -8 -12 -4 -18 1 -19 13
-2 16 2 17 18 9 10 -6 19 -12 19 -14z m-290 -20 c0 -3 -4 -8 -10 -11 -5 -3
-10 -1 -10 4 0 6 5 11 10 11 6 0 10 -2 10 -4z m-49 -16 c5 -61 1 -85 -14 -88
-11 -2 -17 3 -17 17 0 11 -9 25 -20 31 -11 6 -20 20 -20 30 0 16 7 20 35 20
19 0 35 -4 36 -10z m-383 -22 c19 -19 14 -49 -8 -55 -11 -3 -20 -10 -20 -17
-1 -6 -7 3 -14 19 -21 47 10 85 42 53z m703 -15 c-12 -20 -14 -14 -5 12 4 9 9
14 11 11 3 -2 0 -13 -6 -23z m-920 -75 c13 -18 16 -27 7 -20 -13 10 -17 10
-22 -3 -7 -18 -17 -19 -38 -2 -12 9 -14 18 -7 35 12 31 34 27 60 -10z m687
-37 c10 -6 10 -10 -1 -20 -12 -9 -18 -8 -31 4 -9 9 -16 18 -16 21 0 7 34 4 48
-5z m-328 -11 c0 -5 -10 -10 -22 -10 -19 0 -20 2 -8 10 19 13 30 13 30 0z"/>
<path d="M1540 920 c0 -5 5 -10 11 -10 5 0 7 5 4 10 -3 6 -8 10 -11 10 -2 0
-4 -4 -4 -10z"/>
<path d="M1710 2300 c0 -5 5 -10 10 -10 6 0 10 5 10 10 0 6 -4 10 -10 10 -5 0
-10 -4 -10 -10z"/>
<path d="M1795 2290 c-3 -6 1 -13 10 -16 19 -8 30 0 20 15 -8 14 -22 14 -30 1z"/>
<path d="M1964 2289 c-6 -10 11 -28 27 -29 15 0 17 29 3 34 -21 8 -22 8 -30
-5z"/>
<path d="M2138 2285 c-11 -12 5 -53 23 -58 25 -7 46 28 28 49 -11 14 -41 19
-51 9z"/>
<path d="M2690 2275 c0 -9 9 -15 25 -15 16 0 25 6 25 15 0 9 -9 15 -25 15 -16
0 -25 -6 -25 -15z"/>
<path d="M536 2272 c-3 -6 -1 -14 5 -17 15 -10 25 3 12 16 -7 7 -13 7 -17 1z"/>
<path d="M1386 2265 c4 -8 10 -12 15 -9 14 8 10 24 -6 24 -9 0 -12 -6 -9 -15z"/>
<path d="M1215 2260 c-3 -5 -1 -10 4 -10 6 0 11 5 11 10 0 6 -2 10 -4 10 -3 0
-8 -4 -11 -10z"/>
<path d="M2090 2260 c0 -5 7 -10 15 -10 8 0 15 5 15 10 0 6 -7 10 -15 10 -8 0
-15 -4 -15 -10z"/>
<path d="M1260 2250 c0 -5 5 -10 10 -10 6 0 10 5 10 10 0 6 -4 10 -10 10 -5 0
-10 -4 -10 -10z"/>
<path d="M1846 2252 c-3 -6 -1 -14 5 -17 15 -10 25 3 12 16 -7 7 -13 7 -17 1z"/>
<path d="M1010 2226 c0 -17 7 -26 25 -30 32 -8 46 0 38 22 -15 39 -63 45 -63
8z"/>
<path d="M2285 2240 c-7 -12 2 -30 16 -30 12 0 12 27 0 35 -5 3 -12 1 -16 -5z"/>
<path d="M2663 2239 c4 -13 -2 -18 -25 -23 -37 -7 -76 -37 -70 -54 2 -7 8 -10
12 -7 5 3 18 0 28 -6 13 -8 27 -9 48 -2 26 9 29 14 27 49 -2 21 -8 43 -14 48
-9 8 -10 7 -6 -5z"/>
<path d="M597 2234 c-8 -8 1 -24 14 -24 5 0 9 7 9 15 0 15 -12 20 -23 9z"/>
<path d="M2340 2232 c0 -4 6 -20 13 -35 13 -28 37 -37 37 -13 0 8 -6 17 -12
19 -10 4 -10 8 0 15 11 7 10 10 -3 16 -22 8 -35 8 -35 -2z"/>
<path d="M1165 2220 c4 -6 11 -8 16 -5 14 9 11 15 -7 15 -8 0 -12 -5 -9 -10z"/>
<path d="M2225 2220 c-7 -12 2 -30 16 -30 5 0 9 9 9 20 0 21 -15 27 -25 10z"/>
<path d="M1260 2210 l-25 -6 25 -7 c26 -7 34 -4 29 11 -2 4 -15 5 -29 2z"/>
<path d="M1194 2199 c-8 -14 11 -33 25 -25 11 7 4 36 -9 36 -5 0 -12 -5 -16
-11z"/>
<path d="M685 2190 c3 -5 11 -10 16 -10 6 0 7 5 4 10 -3 6 -11 10 -16 10 -6 0
-7 -4 -4 -10z"/>
<path d="M2740 2190 c0 -14 15 -19 29 -11 9 6 7 10 -8 14 -12 3 -21 1 -21 -3z"/>
<path d="M2866 2191 c-4 -7 -5 -15 -2 -18 9 -9 19 4 14 18 -4 11 -6 11 -12 0z"/>
<path d="M630 2170 c0 -5 6 -10 14 -10 15 0 52 -49 48 -64 -2 -5 4 -6 13 -2 9
3 20 6 23 6 4 0 -13 18 -38 40 -46 41 -60 48 -60 30z"/>
<path d="M1250 2170 c0 -5 5 -10 11 -10 5 0 7 5 4 10 -3 6 -8 10 -11 10 -2 0
-4 -4 -4 -10z"/>
<path d="M816 2161 c-4 -5 -2 -12 3 -15 5 -4 12 -2 15 3 4 5 2 12 -3 15 -5 4
-12 2 -15 -3z"/>
<path d="M2164 2155 c-4 -9 4 -25 20 -40 22 -20 31 -23 47 -15 23 13 25 30 2
30 -9 0 -13 3 -10 7 11 10 -13 33 -35 33 -10 0 -21 -7 -24 -15z"/>
<path d="M1015 2140 c-3 -5 -1 -10 4 -10 6 0 11 5 11 10 0 6 -2 10 -4 10 -3 0
-8 -4 -11 -10z"/>
<path d="M1230 2135 c0 -9 5 -15 11 -13 6 2 11 8 11 13 0 5 -5 11 -11 13 -6 2
-11 -4 -11 -13z"/>
<path d="M2272 2127 c-7 -8 -6 -18 4 -32 13 -18 15 -18 31 -3 13 14 14 20 3
32 -15 19 -24 20 -38 3z"/>
<path d="M2460 2125 c-15 -19 -2 -37 30 -42 24 -4 27 19 4 41 -19 20 -19 20
-34 1z"/>
<path d="M3030 2110 c0 -5 5 -10 10 -10 6 0 10 5 10 10 0 6 -4 10 -10 10 -5 0
-10 -4 -10 -10z"/>
<path d="M1130 2100 c-12 -7 -12 -12 -3 -21 10 -10 14 -9 19 5 8 22 2 27 -16
16z"/>
<path d="M2406 2102 c-3 -6 -1 -14 5 -17 15 -10 25 3 12 16 -7 7 -13 7 -17 1z"/>
<path d="M980 2074 c0 -8 5 -12 10 -9 6 3 10 10 10 16 0 5 -4 9 -10 9 -5 0
-10 -7 -10 -16z"/>
<path d="M1193 2083 c-18 -6 -16 -33 1 -33 8 0 17 4 20 8 7 12 -7 30 -21 25z"/>
<path d="M842 2068 c6 -18 28 -21 28 -4 0 9 -7 16 -16 16 -9 0 -14 -5 -12 -12z"/>
<path d="M2257 2074 c-11 -11 5 -34 24 -34 17 0 18 3 9 20 -11 20 -22 25 -33
14z"/>
<path d="M757 2064 c-16 -16 -6 -34 19 -34 19 0 25 5 22 17 -3 19 -29 29 -41
17z"/>
<path d="M2426 2055 c-9 -26 -7 -32 5 -12 6 10 9 21 6 23 -2 3 -7 -2 -11 -11z"/>
<path d="M2574 2055 c-3 -8 -22 -18 -42 -21 -37 -7 -37 -7 -9 -15 37 -10 93
17 76 37 -14 18 -18 18 -25 -1z"/>
<path d="M2950 2055 c0 -9 5 -15 11 -13 6 2 11 8 11 13 0 5 -5 11 -11 13 -6 2
-11 -4 -11 -13z"/>
<path d="M2460 2046 c0 -9 5 -16 10 -16 6 0 10 4 10 9 0 6 -4 13 -10 16 -5 3
-10 -1 -10 -9z"/>
<path d="M820 2020 c0 -5 5 -10 10 -10 6 0 10 5 10 10 0 6 -4 10 -10 10 -5 0
-10 -4 -10 -10z"/>
<path d="M2240 2015 c7 -8 19 -15 26 -15 8 0 11 6 8 15 -4 8 -15 15 -26 15
-17 0 -18 -3 -8 -15z"/>
<path d="M2694 2008 c-3 -4 -1 -8 4 -8 18 0 78 -63 65 -67 -20 -7 -16 -35 5
-31 21 4 29 67 12 98 -8 16 -19 20 -46 18 -20 -1 -38 -6 -40 -10z"/>
<path d="M997 1996 c-4 -9 -4 -23 -1 -31 7 -16 24 -21 24 -6 0 5 10 11 23 13
12 2 22 10 22 18 0 21 -60 26 -68 6z"/>
<path d="M2367 2003 c-4 -3 -7 -11 -7 -17 0 -6 5 -5 12 2 6 6 9 14 7 17 -3 3
-9 2 -12 -2z"/>
<path d="M2420 1990 c0 -11 5 -20 10 -20 6 0 10 9 10 20 0 11 -4 20 -10 20 -5
0 -10 -9 -10 -20z"/>
<path d="M2480 1991 c0 -5 6 -12 13 -15 6 -3 0 -3 -15 0 -16 4 -28 2 -28 -2 0
-5 -3 -18 -6 -30 -4 -14 -1 -21 10 -21 9 0 16 4 16 8 0 4 14 16 30 26 l31 19
-26 12 c-14 6 -25 8 -25 3z"/>
<path d="M1220 1966 c0 -8 -14 -19 -31 -25 -37 -13 -34 -35 5 -39 24 -3 27 -1
21 17 -4 14 0 23 15 31 23 13 27 30 5 30 -8 0 -15 -6 -15 -14z"/>
<path d="M2610 1970 c0 -5 5 -10 11 -10 5 0 7 5 4 10 -3 6 -8 10 -11 10 -2 0
-4 -4 -4 -10z"/>
<path d="M1270 1928 c-13 -24 -27 -46 -32 -49 -4 -3 -2 -14 6 -25 14 -18 15
-18 25 9 10 24 22 31 59 30 6 -1 12 10 12 23 0 14 -6 24 -15 24 -7 0 -18 7
-23 15 -6 12 -13 6 -32 -27z"/>
<path d="M2875 1960 c-4 -6 -3 -16 3 -22 6 -6 12 -6 17 2 4 6 3 16 -3 22 -6 6
-12 6 -17 -2z"/>
<path d="M2392 1948 c6 -18 28 -21 28 -4 0 9 -7 16 -16 16 -9 0 -14 -5 -12
-12z"/>
<path d="M3147 1954 c-9 -10 2 -24 19 -24 8 0 14 7 14 15 0 15 -21 21 -33 9z"/>
<path d="M190 1935 c0 -8 7 -15 15 -15 8 0 15 7 15 15 0 8 -7 15 -15 15 -8 0
-15 -7 -15 -15z"/>
<path d="M2523 1936 c-4 -8 -17 -14 -28 -13 -14 1 -20 -4 -20 -18 0 -14 7 -20
22 -21 12 -1 22 2 21 5 -2 18 4 21 21 11 16 -8 21 -6 26 10 11 36 -24 58 -42
26z"/>
<path d="M790 1920 c12 -22 30 -18 30 6 0 8 -9 14 -20 14 -18 0 -19 -3 -10
-20z"/>
<path d="M515 1920 c3 -5 10 -10 16 -10 5 0 9 5 9 10 0 6 -7 10 -16 10 -8 0
-12 -4 -9 -10z"/>
<path d="M671 1918 c-1 -20 -16 -24 -26 -8 -16 25 -22 -4 -9 -38 41 -101 42
-102 85 -102 26 0 42 5 45 15 4 8 16 15 28 15 15 0 17 3 8 9 -11 7 -11 9 2 14
9 4 16 18 16 31 0 19 -6 27 -25 31 -14 3 -37 8 -52 12 -16 3 -36 5 -45 4 -9
-1 -18 6 -21 16 -4 17 -5 17 -6 1z"/>
<path d="M2617 1887 c-11 -29 -9 -43 4 -30 6 6 9 19 7 29 -3 18 -4 18 -11 1z"/>
<path d="M850 1875 c-9 -10 -7 -16 8 -24 15 -8 23 -7 32 4 7 9 10 19 6 22 -12
12 -35 11 -46 -2z"/>
<path d="M1007 1883 c-4 -3 -7 -19 -7 -34 0 -20 9 -33 32 -47 35 -23 48 -21
28 3 -9 11 -10 19 -2 28 21 25 -29 73 -51 50z"/>
<path d="M2680 1840 c6 -11 21 -20 33 -20 l22 1 -24 19 c-30 26 -45 26 -31 0z"/>
<path d="M2584 1810 c0 -11 6 -20 13 -20 7 0 13 9 13 20 0 11 -6 20 -13 20 -7
0 -13 -9 -13 -20z"/>
<path d="M2625 1810 c-3 -11 -3 -25 0 -30 4 -7 -2 -9 -19 -4 -20 5 -26 2 -26
-11 0 -11 5 -15 14 -12 8 3 17 1 20 -6 3 -8 8 -6 16 6 6 9 20 17 30 17 28 0
25 25 -4 44 -23 15 -25 14 -31 -4z"/>
<path d="M25 1811 c-8 -15 3 -31 21 -31 9 0 14 7 12 17 -4 20 -24 28 -33 14z"/>
<path d="M898 1803 c6 -2 18 -2 25 0 6 3 1 5 -13 5 -14 0 -19 -2 -12 -5z"/>
<path d="M2856 1794 c-9 -22 3 -32 14 -14 12 19 12 30 1 30 -5 0 -12 -7 -15
-16z"/>
<path d="M2883 1774 c-6 -17 32 -58 47 -49 5 3 8 16 6 28 -3 12 -5 25 -5 30
-2 14 -42 7 -48 -9z"/>
<path d="M2730 1760 c0 -5 5 -10 10 -10 6 0 10 5 10 10 0 6 -4 10 -10 10 -5 0
-10 -4 -10 -10z"/>
<path d="M3050 1756 c0 -15 38 -29 53 -19 5 3 -1 12 -14 19 -31 17 -39 17 -39
0z"/>
<path d="M3160 1739 c0 -25 33 -22 38 4 2 12 -3 17 -17 17 -15 0 -21 -6 -21
-21z"/>
<path d="M732 1715 c-11 -12 -10 -15 3 -15 8 0 15 7 15 15 0 18 -2 18 -18 0z"/>
<path d="M2680 1715 c0 -2 9 -9 19 -14 14 -8 20 -7 25 4 4 11 -2 15 -19 15
-14 0 -25 -2 -25 -5z"/>
<path d="M2624 1695 c-7 -18 3 -35 22 -35 20 0 30 30 13 41 -20 12 -29 11 -35
-6z"/>
<path d="M170 1691 c0 -6 5 -13 10 -16 6 -3 10 1 10 9 0 9 -4 16 -10 16 -5 0
-10 -4 -10 -9z"/>
<path d="M2750 1681 c0 -12 6 -21 15 -21 8 0 15 4 15 9 0 5 -7 14 -15 21 -13
10 -15 9 -15 -9z"/>
<path d="M804 1670 c0 -11 4 -20 9 -20 4 0 12 0 17 0 16 0 11 27 -6 34 -22 8
-21 8 -20 -14z"/>
<path d="M3152 1668 c-16 -16 -15 -23 4 -42 22 -22 51 -20 57 4 3 13 -2 25
-16 35 -26 18 -30 18 -45 3z"/>
<path d="M2717 1653 c-4 -3 -7 -15 -7 -25 0 -19 -19 -24 -35 -9 -6 5 -21 12
-35 16 -24 7 -24 6 -8 -11 9 -9 45 -22 80 -29 49 -9 62 -15 60 -27 -7 -42 92
-56 116 -18 9 15 8 23 -7 41 -17 21 -22 22 -45 11 -43 -19 -66 -15 -66 11 0
35 -33 60 -53 40z"/>
<path d="M2865 1650 c-17 -7 -15 -9 13 -9 17 -1 32 4 32 9 0 12 -17 12 -45 0z"/>
<path d="M250 1625 c0 -8 5 -15 10 -15 6 0 10 7 10 15 0 8 -4 15 -10 15 -5 0
-10 -7 -10 -15z"/>
<path d="M3250 1610 c0 -5 5 -10 10 -10 6 0 10 5 10 10 0 6 -4 10 -10 10 -5 0
-10 -4 -10 -10z"/>
<path d="M3037 1603 c-14 -13 -7 -32 14 -38 24 -8 41 9 32 32 -5 14 -35 18
-46 6z"/>
<path d="M2578 1583 c7 -3 16 -2 19 1 4 3 -2 6 -13 5 -11 0 -14 -3 -6 -6z"/>
<path d="M2929 1589 c0 -2 -2 -22 -4 -45 -4 -54 6 -70 34 -55 27 15 27 37 -1
44 -17 5 -19 9 -10 20 10 11 9 17 -3 27 -8 7 -15 11 -16 9z"/>
<path d="M603 1555 c-3 -9 -2 -19 1 -23 8 -8 38 10 44 26 6 18 -38 14 -45 -3z"/>
<path d="M2717 1554 c-8 -8 1 -24 14 -24 5 0 9 7 9 15 0 15 -12 20 -23 9z"/>
<path d="M500 1540 c0 -5 7 -10 16 -10 8 0 12 5 9 10 -3 6 -10 10 -16 10 -5 0
-9 -4 -9 -10z"/>
<path d="M3066 1534 c-13 -12 -14 -20 -6 -28 13 -13 45 4 45 24 0 21 -21 23
-39 4z"/>
<path d="M2652 1532 c-33 -5 -24 -36 11 -40 15 -2 27 0 26 5 -2 24 -16 38 -37
35z"/>
<path d="M2826 1496 c7 -18 13 -20 34 -6 9 6 10 10 3 10 -6 0 -19 3 -27 6 -12
5 -15 2 -10 -10z"/>
<path d="M2590 1490 c0 -5 5 -10 10 -10 6 0 10 5 10 10 0 6 -4 10 -10 10 -5 0
-10 -4 -10 -10z"/>
<path d="M2996 1485 c4 -8 7 -15 9 -15 2 0 5 7 9 15 3 9 0 15 -9 15 -9 0 -12
-6 -9 -15z"/>
<path d="M2720 1466 c0 -18 16 -29 30 -21 13 8 1 35 -16 35 -8 0 -14 -6 -14
-14z"/>
<path d="M795 1460 c-3 -5 -1 -10 4 -10 6 0 11 5 11 10 0 6 -2 10 -4 10 -3 0
-8 -4 -11 -10z"/>
<path d="M2783 1463 c-7 -2 -13 -9 -13 -14 0 -14 34 -11 56 6 18 14 18 14 -6
14 -14 0 -31 -3 -37 -6z"/>
<path d="M3035 1450 c-3 -5 3 -10 15 -10 12 0 18 5 15 10 -3 6 -10 10 -15 10
-5 0 -12 -4 -15 -10z"/>
<path d="M700 1410 c0 -16 4 -30 9 -30 25 0 41 14 41 36 0 19 -5 24 -25 24
-21 0 -25 -5 -25 -30z"/>
<path d="M760 1431 c0 -15 15 -21 38 -14 32 8 27 23 -8 23 -16 0 -30 -4 -30
-9z"/>
<path d="M2800 1427 c-17 -13 -20 -48 -5 -59 14 -10 27 2 20 20 -3 8 0 19 7
23 8 5 9 11 3 18 -7 6 -15 6 -25 -2z"/>
<path d="M2970 1436 c0 -2 7 -9 15 -16 9 -7 15 -8 15 -2 0 5 -7 12 -15 16 -8
3 -15 4 -15 2z"/>
<path d="M3080 1415 c0 -16 6 -25 15 -25 21 0 31 30 14 41 -23 14 -29 11 -29
-16z"/>
<path d="M515 1420 c3 -5 8 -10 11 -10 2 0 4 5 4 10 0 6 -5 10 -11 10 -5 0 -7
-4 -4 -10z"/>
<path d="M2694 1419 c-10 -17 13 -36 27 -22 12 12 4 33 -11 33 -5 0 -12 -5
-16 -11z"/>
<path d="M2846 1389 c-8 -12 -12 -28 -9 -35 3 -8 -1 -14 -10 -14 -25 0 -40
-25 -22 -40 19 -16 47 -5 43 17 -2 12 2 17 12 14 14 -4 32 -4 65 0 10 2 13 10
9 28 -12 51 -61 67 -88 30z"/>
<path d="M955 1389 c-12 -19 5 -23 22 -6 16 16 16 17 1 17 -9 0 -20 -5 -23
-11z"/>
<path d="M833 1368 c-13 -30 -6 -47 24 -59 21 -8 23 -12 13 -24 -18 -22 -3
-18 20 5 17 17 18 21 5 26 -8 4 -15 12 -15 19 0 8 -9 17 -20 20 -11 4 -18 10
-15 15 3 5 13 6 22 3 11 -4 14 -3 9 5 -12 19 -32 14 -43 -10z"/>
<path d="M1047 1383 c-12 -12 -7 -22 8 -17 8 4 15 10 15 15 0 11 -14 12 -23 2z"/>
<path d="M350 1370 c0 -5 5 -10 11 -10 5 0 7 5 4 10 -3 6 -8 10 -11 10 -2 0
-4 -4 -4 -10z"/>
<path d="M2630 1365 c0 -8 5 -15 11 -15 5 0 7 -5 4 -10 -7 -11 22 -26 32 -17
7 8 -24 57 -37 57 -6 0 -10 -7 -10 -15z"/>
<path d="M3035 1370 c3 -5 13 -10 21 -10 8 0 14 -5 14 -12 0 -9 3 -9 12 0 14
14 11 17 -25 26 -19 4 -26 3 -22 -4z"/>
<path d="M1106 1344 c-9 -22 -8 -24 9 -24 8 0 15 9 15 20 0 24 -15 27 -24 4z"/>
<path d="M3170 1350 c0 -5 5 -10 10 -10 6 0 10 5 10 10 0 6 -4 10 -10 10 -5 0
-10 -4 -10 -10z"/>
<path d="M963 1325 c0 -8 7 -15 15 -15 7 0 12 5 10 12 -6 18 -25 21 -25 3z"/>
<path d="M170 1320 c0 -5 5 -10 10 -10 6 0 10 5 10 10 0 6 -4 10 -10 10 -5 0
-10 -4 -10 -10z"/>
<path d="M3182 1312 c-15 -10 -7 -38 14 -46 20 -8 41 34 23 45 -17 11 -21 11
-37 1z"/>
<path d="M2940 1281 c0 -35 12 -45 46 -37 29 8 31 27 6 49 -30 27 -52 22 -52
-12z"/>
<path d="M740 1286 c0 -9 7 -16 16 -16 17 0 14 22 -4 28 -7 2 -12 -3 -12 -12z"/>
<path d="M1000 1285 c0 -8 2 -15 4 -15 2 0 6 7 10 15 3 8 1 15 -4 15 -6 0 -10
-7 -10 -15z"/>
<path d="M2780 1275 c0 -8 7 -15 15 -15 8 0 15 7 15 15 0 8 -7 15 -15 15 -8 0
-15 -7 -15 -15z"/>
<path d="M2852 1253 c-1 -20 -6 -41 -12 -47 -18 -18 -11 -29 15 -24 13 3 24 2
23 -1 -3 -14 15 -40 23 -35 17 10 9 46 -17 77 -15 18 -22 33 -15 35 16 5 14
32 -2 32 -9 0 -14 -13 -15 -37z"/>
<path d="M980 1255 c0 -16 16 -20 24 -6 3 5 -1 11 -9 15 -9 3 -15 0 -15 -9z"/>
<path d="M2668 1248 c-20 -20 -24 -33 -8 -23 6 3 17 -1 26 -9 29 -30 69 -11
43 20 -23 28 -43 32 -61 12z"/>
<path d="M927 1244 c-8 -8 1 -24 14 -24 5 0 9 7 9 15 0 15 -12 20 -23 9z"/>
<path d="M3023 1219 c4 -13 7 -27 7 -31 0 -4 15 -8 33 -10 26 -2 31 -7 29 -25
-2 -13 6 -27 20 -37 28 -20 43 -7 33 31 -5 15 -7 35 -7 43 3 28 -13 39 -67 46
-54 7 -54 7 -48 -17z"/>
<path d="M2810 1205 c0 -10 -10 -15 -27 -15 -20 0 -24 -3 -16 -11 9 -9 18 -8
37 5 26 17 35 36 16 36 -5 0 -10 -7 -10 -15z"/>
<path d="M3176 1213 c-11 -11 -6 -23 9 -23 8 0 15 4 15 9 0 13 -16 22 -24 14z"/>
<path d="M865 1200 c-4 -6 -15 -8 -26 -5 -10 4 -19 2 -19 -4 0 -5 -9 -12 -19
-16 -40 -12 12 -105 59 -105 38 0 76 85 43 97 -7 3 -13 11 -13 18 0 18 -17 28
-25 15z"/>
<path d="M3195 1161 c-3 -5 -1 -12 5 -16 5 -3 10 1 10 9 0 18 -6 21 -15 7z"/>
<path d="M2733 1139 c-17 -17 -4 -80 24 -112 12 -16 23 -24 23 -18 0 6 9 20
20 31 25 25 25 40 1 47 -11 3 -24 18 -30 34 -11 31 -20 36 -38 18z"/>
<path d="M3255 1141 c-3 -5 -1 -12 5 -16 5 -3 10 1 10 9 0 18 -6 21 -15 7z"/>
<path d="M950 1116 c0 -8 13 -21 29 -29 26 -13 30 -13 36 1 3 8 4 15 3 16 -2
1 -13 7 -25 14 -30 16 -43 15 -43 -2z"/>
<path d="M615 1065 c-16 -14 -25 -25 -19 -25 6 0 21 11 34 25 30 32 24 31 -15
0z"/>
<path d="M447 1023 c-14 -13 -7 -33 11 -33 26 0 34 11 21 27 -13 14 -22 16
-32 6z"/>
<path d="M990 1020 c0 -5 7 -7 15 -4 8 4 15 8 15 10 0 2 -7 4 -15 4 -8 0 -15
-4 -15 -10z"/>
<path d="M1179 1013 c-13 -17 -13 -17 6 -3 11 8 22 16 24 17 2 2 0 3 -6 3 -6
0 -17 -8 -24 -17z"/>
<path d="M1380 1016 c0 -9 5 -16 10 -16 6 0 10 4 10 9 0 6 -4 13 -10 16 -5 3
-10 -1 -10 -9z"/>
<path d="M2652 1012 c-2 -7 -3 -14 -1 -15 52 -29 65 -40 70 -59 6 -22 7 -22
18 7 8 19 10 39 4 55 -7 21 -15 25 -47 25 -22 0 -41 -5 -44 -13z"/>
<path d="M1284 998 c-4 -7 -8 -23 -9 -36 0 -13 -11 -32 -24 -41 l-23 -18 29
-21 29 -21 28 35 c22 28 25 38 16 49 -7 8 -19 15 -26 15 -17 0 -18 12 -3 27 7
7 7 13 1 17 -6 3 -14 1 -18 -6z"/>
<path d="M1325 999 c-4 -6 -4 -13 -1 -16 3 -4 6 -1 6 5 0 7 5 12 10 12 6 0 10
-9 10 -20 0 -11 5 -20 10 -20 7 0 7 -7 -1 -21 -9 -18 -7 -24 13 -37 36 -26 43
-21 46 38 2 40 0 51 -8 40 -9 -13 -12 -12 -25 4 -17 23 -51 31 -60 15z"/>
<path d="M3030 996 c0 -2 7 -6 15 -10 8 -3 15 -1 15 4 0 6 -7 10 -15 10 -8 0
-15 -2 -15 -4z"/>
<path d="M3069 975 c-1 -3 -2 -8 -3 -12 -1 -5 -5 -13 -9 -19 -9 -16 30 -25 42
-10 6 7 5 17 -3 29 -13 17 -25 22 -27 12z"/>
<path d="M620 960 c0 -5 7 -7 15 -4 8 4 15 8 15 10 0 2 -7 4 -15 4 -8 0 -15
-4 -15 -10z"/>
<path d="M1117 944 c-14 -15 -6 -34 14 -34 14 0 19 5 17 17 -3 18 -20 27 -31
17z"/>
<path d="M540 914 c-55 -40 -56 -45 -4 -18 55 28 76 44 54 43 -8 0 -31 -12
-50 -25z"/>
<path d="M330 910 c0 -5 5 -10 11 -10 5 0 7 5 4 10 -3 6 -8 10 -11 10 -2 0 -4
-4 -4 -10z"/>
<path d="M822 898 c6 -18 28 -21 28 -4 0 9 -7 16 -16 16 -9 0 -14 -5 -12 -12z"/>
<path d="M2693 896 c-32 -15 -29 -23 9 -24 17 0 34 -6 38 -12 11 -18 20 3 13
28 -6 24 -25 26 -60 8z"/>
<path d="M370 880 c0 -5 5 -10 10 -10 6 0 10 5 10 10 0 6 -4 10 -10 10 -5 0
-10 -4 -10 -10z"/>
<path d="M2440 869 c0 -15 5 -20 23 -17 27 4 26 19 -2 30 -17 6 -21 3 -21 -13z"/>
<path d="M2610 881 c0 -6 4 -13 10 -16 6 -3 7 1 4 9 -7 18 -14 21 -14 7z"/>
<path d="M3090 880 c0 -5 7 -10 15 -10 8 0 15 5 15 10 0 6 -7 10 -15 10 -8 0
-15 -4 -15 -10z"/>
<path d="M1208 853 c7 -3 16 -2 19 1 4 3 -2 6 -13 5 -11 0 -14 -3 -6 -6z"/>
<path d="M2491 828 c-6 -18 -18 -28 -31 -28 -24 0 -27 -25 -4 -34 22 -8 24 -8
24 8 0 9 7 12 21 9 19 -5 20 -3 14 18 l-8 24 23 -20 23 -20 -7 25 c-3 14 -3
19 0 13 6 -14 34 -18 34 -5 0 4 -9 13 -21 20 -15 10 -24 10 -34 2 -10 -8 -14
-7 -18 2 -3 8 -9 2 -16 -14z"/>
<path d="M3295 840 c-3 -5 -1 -10 4 -10 6 0 11 5 11 10 0 6 -2 10 -4 10 -3 0
-8 -4 -11 -10z"/>
<path d="M2636 816 c-8 -34 7 -57 26 -38 9 9 9 12 -1 12 -7 0 -10 3 -8 8 3 4
1 16 -3 27 -6 17 -8 16 -14 -9z"/>
<path d="M1200 807 c0 -13 -5 -28 -12 -35 -15 -15 7 -42 34 -42 26 0 32 22 18
65 -13 39 -40 48 -40 12z"/>
<path d="M1282 805 l-23 -24 30 2 c25 2 31 7 31 25 0 28 -9 28 -38 -3z"/>
<path d="M3140 820 c0 -5 9 -14 20 -20 11 -6 20 -7 20 -3 0 5 -9 14 -20 21
-11 7 -20 8 -20 2z"/>
<path d="M961 806 c-13 -15 -4 -26 21 -26 21 0 24 25 4 33 -8 3 -19 0 -25 -7z"/>
<path d="M2520 770 c-26 -16 -4 -21 26 -5 23 12 25 15 9 15 -11 0 -27 -4 -35
-10z"/>
<path d="M2947 763 c-4 -3 -7 -17 -7 -30 0 -27 34 -33 44 -7 10 25 -20 55 -37
37z"/>
<path d="M532 748 c6 -18 28 -21 28 -4 0 9 -7 16 -16 16 -9 0 -14 -5 -12 -12z"/>
<path d="M2306 752 c-3 -5 -1 -14 3 -20 6 -10 10 -10 20 1 9 12 8 16 -3 20 -9
4 -17 3 -20 -1z"/>
<path d="M1270 740 c0 -5 5 -10 10 -10 6 0 10 5 10 10 0 6 -4 10 -10 10 -5 0
-10 -4 -10 -10z"/>
<path d="M2340 710 c0 -24 25 -27 34 -4 9 23 8 24 -14 24 -13 0 -20 -7 -20
-20z"/>
<path d="M2615 720 c3 -5 11 -10 16 -10 6 0 7 5 4 10 -3 6 -11 10 -16 10 -6 0
-7 -4 -4 -10z"/>
<path d="M1883 685 c-10 -11 -10 -17 3 -29 19 -19 31 -20 37 -3 5 14 -10 47
-21 47 -4 -1 -13 -7 -19 -15z"/>
<path d="M2170 670 c0 -5 5 -10 10 -10 6 0 10 5 10 10 0 6 -4 10 -10 10 -5 0
-10 -4 -10 -10z"/>
<path d="M850 655 c0 -8 7 -15 15 -15 8 0 15 7 15 15 0 8 -7 15 -15 15 -8 0
-15 -7 -15 -15z"/>
<path d="M1035 660 c-3 -5 1 -10 10 -10 9 0 13 5 10 10 -3 6 -8 10 -10 10 -2
0 -7 -4 -10 -10z"/>
<path d="M1817 644 c-4 -4 -7 -14 -7 -21 0 -19 42 -13 48 6 3 10 0 12 -11 8
-9 -3 -17 -1 -19 4 -2 6 -7 7 -11 3z"/>
<path d="M1004 626 c-8 -22 3 -33 18 -18 9 9 9 15 0 24 -9 9 -13 7 -18 -6z"/>
<path d="M1205 630 c-10 -16 25 -79 41 -73 8 3 14 10 14 15 0 17 -48 69 -55
58z"/>
<path d="M2260 620 c0 -5 5 -10 10 -10 6 0 10 -10 11 -22 0 -22 1 -22 9 -3 14
33 11 45 -10 45 -11 0 -20 -4 -20 -10z"/>
<path d="M945 601 c-3 -5 -1 -12 4 -15 5 -3 11 1 15 9 6 16 -9 21 -19 6z"/>
<path d="M840 540 c0 -5 7 -10 15 -10 8 0 15 5 15 10 0 6 -7 10 -15 10 -8 0
-15 -4 -15 -10z"/>
</g>
</svg>
